<?xml version="1.0" standalone="no"?><!DOCTYPE svg PUBLIC "-//W3C//DTD SVG 1.1//EN" "http://www.w3.org/Graphics/SVG/1.1/DTD/svg11.dtd"><svg t="1574838350156" class="icon" viewBox="0 0 1024 1024" version="1.1" xmlns="http://www.w3.org/2000/svg" p-id="1262" xmlns:xlink="http://www.w3.org/1999/xlink" width="200" height="200"><defs><style type="text/css"></style></defs><path d="M981.333333 264.981333V979.2H42.666667V264.981333h938.666666m0-42.666666H42.666667c-23.466667 0-42.666667 19.2-42.666667 42.666666V979.2c0 23.466667 19.2 42.666667 42.666667 42.666667h938.666666c23.466667 0 42.666667-19.2 42.666667-42.666667V264.981333c0-23.466667-19.2-42.666667-42.666667-42.666666z" p-id="1263"></path><path d="M773.461333 256.810667h-42.666666c0-117.610667-98.154667-213.290667-218.794667-213.290667-120.597333 0-218.730667 95.68-218.730667 213.290667h-42.666666C250.602667 115.669333 367.872 0.853333 512 0.853333c144.170667 0 261.461333 114.816 261.461333 255.957334zM796.352 531.285333H227.626667a21.333333 21.333333 0 1 1 0-42.666666h568.725333a21.333333 21.333333 0 1 1 0 42.666666zM796.352 755.584H227.626667a21.333333 21.333333 0 1 1 0-42.666667h568.725333a21.333333 21.333333 0 1 1 0 42.666667z" p-id="1264"></path></svg>